<?xml version="1.0" encoding="utf-8"?>
<!-- Generator: Adobe Illustrator 23.0.5, SVG Export Plug-In . SVG Version: 6.00 Build 0)  -->
<svg version="1.1" id="Layer_1" xmlns="http://www.w3.org/2000/svg" xmlns:xlink="http://www.w3.org/1999/xlink" x="0px" y="0px"
	 viewBox="0 0 512 512" style="enable-background:new 0 0 512 512;" xml:space="preserve">
<style type="text/css">
	.st0{fill:#EEEEEE;}
</style>
<path class="st0" d="M380.4,111.7c-3.3-2.8-7.5-4.3-11.8-4.3c-5.3,0-10.4,2.3-13.8,6.4c-3.2,3.7-4.7,8.4-4.3,13.3
	c0.4,4.8,2.7,9.3,6.4,12.4c34.8,29.5,54.8,72.3,54.8,117.4c0,85.4-69.8,154.8-155.6,154.8s-155.6-69.5-155.6-154.8
	c0-45.2,20-88,54.8-117.4c3.7-3.1,6-7.5,6.4-12.4c0.4-4.8-1.1-9.6-4.3-13.3c-3.5-4-8.5-6.4-13.8-6.4c-4.3,0-8.5,1.5-11.8,4.3
	C88.7,148.1,64,201,64,256.8C64,362.2,150.1,448,256,448s192-85.8,192-191.2C448,201,423.3,148.1,380.4,111.7L380.4,111.7z"/>
<path class="st0" d="M331.1,200.4h-67.6l32.7-116.8c0.6-2.8-2.9-4.4-4.5-2.1L177,232.1c-2.4,3.5-0.1,8.4,3.9,8.4h67.6l-32.7,116.8
	c-0.6,2.8,2.9,4.4,4.5,2.1l114.8-150.5C337.4,205.3,335.2,200.4,331.1,200.4L331.1,200.4z"/>
</svg>
