<?xml version="1.0" encoding="utf-8"?>
<!-- Generator: Adobe Illustrator 23.0.5, SVG Export Plug-In . SVG Version: 6.00 Build 0)  -->
<svg version="1.1" id="Layer_1" xmlns="http://www.w3.org/2000/svg" xmlns:xlink="http://www.w3.org/1999/xlink" x="0px" y="0px"
	 viewBox="0 0 512 512" style="enable-background:new 0 0 512 512;" xml:space="preserve">
<style type="text/css">
	.st0{fill:#EEEEEE;}
</style>
<path class="st0" d="M446.1,251.6L332,142.7c-1.2-1.1-2.7-1.7-4.1-1.7s-3,0.6-4.1,1.7L310,155.9c-1.2,1.1-1.9,2.7-1.9,4.3
	s0.7,3.2,1.9,4.3l95.8,91.5L310,347.5c-1.2,1.1-1.9,2.7-1.9,4.3c0,1.6,0.7,3.2,1.9,4.3l13.8,13.2c1.2,1.1,2.6,1.7,4.1,1.7
	s3-0.6,4.1-1.7l114.2-109c1.2-1.1,1.9-2.7,1.9-4.3C448,254.3,447.3,252.8,446.1,251.6L446.1,251.6z M106.3,256l95.8-91.5
	c1.2-1.1,1.9-2.7,1.9-4.3s-0.7-3.2-1.9-4.3l-13.8-13.2c-1.2-1.1-2.7-1.7-4.1-1.7s-3,0.6-4.1,1.7l-114.2,109
	c-1.2,1.1-1.9,2.7-1.9,4.3c0,1.6,0.7,3.2,1.9,4.3l114.2,109c1.2,1.1,2.7,1.7,4.1,1.7c1.5,0,3-0.6,4.1-1.7l13.8-13.2
	c1.2-1.1,1.9-2.7,1.9-4.3c0-1.6-0.7-3.2-1.9-4.3L106.3,256z"/>
<circle class="st0" cx="256" cy="256" r="22"/>
<circle class="st0" cx="192" cy="256" r="22"/>
<circle class="st0" cx="320" cy="256" r="22"/>
</svg>
